<svg xmlns="http://www.w3.org/2000/svg" width="17" height="18" viewBox="0 0 17 18">
  <defs>
    <style>
      .cls-1 {
        fill: #fff;
        fill-rule: evenodd;
      }
    </style>
  </defs>
  <path id="Forma_1" data-name="Forma 1" class="cls-1" d="M185.64,655.469v4.11H173.36v-4.11H171v5.317a1.194,1.194,0,0,0,1.182,1.207h14.636A1.193,1.193,0,0,0,188,660.786v-5.317h-2.36Zm-6.356-.407-3.379-4.179s-0.514-.5.043-0.5h1.9V644.3s-0.075-.3.361-0.3h2.68a0.261,0.261,0,0,1,.307.249v6h1.757c0.677,0,.168.52,0.168,0.52s-2.875,3.906-3.276,4.316A0.369,0.369,0,0,1,179.284,655.062Z" transform="translate(-171 -644)"/>
</svg>
