<svg xmlns="http://www.w3.org/2000/svg" width="23" height="17" viewBox="0 0 23 17">
  <defs>
    <style>
      .cls-1 {
        fill: #354b60;
        fill-rule: evenodd;
      }
    </style>
  </defs>
  <path id="Forma_1" data-name="Forma 1" class="cls-1" d="M792,288.167a2.778,2.778,0,0,1-.369,1.362l-7.262-8.007,7.183-6.194a2.78,2.78,0,0,1,.448,1.505v11.334Zm-11.5-5.191,10-8.619a2.874,2.874,0,0,0-1.37-.357h-17.25a2.861,2.861,0,0,0-1.369.357Zm2.787-.522-2.314,2a0.73,0.73,0,0,1-.946,0l-2.314-2-7.354,8.11a2.866,2.866,0,0,0,1.516.436h17.25a2.866,2.866,0,0,0,1.516-.436Zm-13.839-7.126a2.78,2.78,0,0,0-.448,1.505v11.334a2.767,2.767,0,0,0,.369,1.362l7.261-8.008Z" transform="translate(-769 -274)"/>
</svg>
