<svg xmlns="http://www.w3.org/2000/svg" width="47" height="36" viewBox="0 0 47 36">
  <defs>
    <style>
      .cls-1 {
        fill-rule: evenodd;
      }
    </style>
  </defs>
  <path id="truck_icon" class="cls-1" d="M174.535,43.82H171.5c-1.692.051-1.836,0.693-2.019,0.8-3.539-4.322-7.424-3.154-8.269-3.036a11.407,11.407,0,0,1,0-2.741V29.7h12.35l3.57,5.349V43.82h-2.6Zm0-8.773-1.786-2.889h-4.98l0,2.889v3.8h6.769v-3.8Zm-15-7.061V29.7h0V41.948c-1.906.418-3.6,3.012-4.2,5.189h-6.163c-1.308-3.938-6.493-6.882-15.79-9.247V33.015H131V29.7h24.547l2.364-4.921h18.573l-2.137,3.209H159.536Zm-5.464.038H140.909V28.04h-7.093l2.826-2.514h1.976l1.1-1.263v-0.02h0.017l0.978-1.123h2.846L147.021,19h3.393l1.743,3.263h2.8l0.893,2.086h0.008ZM141.261,43.606a5.7,5.7,0,1,1-5.767,5.7A5.732,5.732,0,0,1,141.261,43.606Zm0.081,7.275a1.765,1.765,0,1,0-1.787-1.765A1.776,1.776,0,0,0,141.342,50.881Zm21.736-7.288a5.7,5.7,0,1,1-5.766,5.7A5.735,5.735,0,0,1,163.078,43.594Zm0.078,3.969a1.719,1.719,0,1,1-1.75,1.719A1.734,1.734,0,0,1,163.156,47.563Zm8.906-2.094h4.25a1.688,1.688,0,1,1,0,3.375h-4.25A1.688,1.688,0,0,1,172.062,45.469Z" transform="translate(-131 -19)"/>
</svg>
