<svg xmlns="http://www.w3.org/2000/svg" width="20" height="20" viewBox="0 0 20 20">
  <defs>
    <style>
      .cls-1 {
        fill: #354b60;
        fill-rule: evenodd;
      }
    </style>
  </defs>
  <path id="Forma_1" data-name="Forma 1" class="cls-1" d="M787.889,247.889a12.568,12.568,0,0,1-4-.667,1.369,1.369,0,0,0-1.111.222l-2.445,2.445A17.3,17.3,0,0,1,773,242.556l2.444-2.445a0.884,0.884,0,0,0,.223-1.111,14.916,14.916,0,0,1-.556-3.889A1.049,1.049,0,0,0,774,234h-3.889A1.049,1.049,0,0,0,769,235.111,18.873,18.873,0,0,0,787.889,254,1.049,1.049,0,0,0,789,252.889V249A1.049,1.049,0,0,0,787.889,247.889ZM786.778,244H789a9.958,9.958,0,0,0-10-10v2.222A7.731,7.731,0,0,1,786.778,244Zm-4.445,0h2.223A5.5,5.5,0,0,0,779,238.444v2.223A3.273,3.273,0,0,1,782.333,244Z" transform="translate(-769 -234)"/>
</svg>
